<svg width="805" height="335" viewBox="0 0 805 335" fill="none" xmlns="http://www.w3.org/2000/svg">
<path d="M454.936 212.384C454.936 213.828 454.442 215.044 453.454 216.032C452.466 217.02 451.212 217.514 449.692 217.514H437.722C436.734 217.514 436.24 218.046 436.24 219.11V257.756C436.24 259.2 435.708 260.454 434.644 261.518C433.656 262.506 432.44 263 430.996 263H427.804C426.36 263 425.106 262.506 424.042 261.518C423.054 260.454 422.56 259.2 422.56 257.756V198.59C422.56 196.234 423.13 194.106 424.27 192.206C425.486 190.306 427.044 188.786 428.944 187.646C430.844 186.506 432.972 185.936 435.328 185.936H449.692C451.212 185.936 452.466 186.43 453.454 187.418C454.442 188.406 454.936 189.66 454.936 191.18V194.258C454.936 195.702 454.442 196.956 453.454 198.02C452.466 199.008 451.212 199.502 449.692 199.502H437.722C436.734 199.502 436.24 199.996 436.24 200.984V202.58C436.24 203.492 436.734 203.948 437.722 203.948H449.692C451.212 203.948 452.466 204.48 453.454 205.544C454.442 206.532 454.936 207.786 454.936 209.306V212.384ZM508.201 250.232C508.201 253.804 506.947 256.844 504.439 259.352C502.007 261.784 499.043 263 495.547 263H479.701C476.205 263 473.203 261.784 470.695 259.352C468.187 256.844 466.933 253.804 466.933 250.232V237.806C466.933 235.45 467.503 233.36 468.643 231.536C469.859 229.636 471.417 228.116 473.317 226.976C475.217 225.836 477.345 225.266 479.701 225.266H493.153C493.533 225.266 493.875 225.114 494.179 224.81C494.559 224.506 494.749 224.126 494.749 223.67V219.11C494.749 218.654 494.559 218.274 494.179 217.97C493.875 217.666 493.533 217.514 493.153 217.514H479.701C478.257 217.514 477.003 217.02 475.939 216.032C474.951 215.044 474.457 213.828 474.457 212.384V209.306C474.457 207.786 474.951 206.532 475.939 205.544C477.003 204.48 478.257 203.948 479.701 203.948H495.547C497.903 203.948 500.031 204.518 501.931 205.658C503.831 206.798 505.351 208.356 506.491 210.332C507.631 212.232 508.201 214.36 508.201 216.716V250.232ZM494.749 248.066V240.2C494.749 239.82 494.559 239.478 494.179 239.174C493.875 238.87 493.533 238.718 493.153 238.718H482.095C481.715 238.718 481.335 238.87 480.955 239.174C480.651 239.478 480.499 239.82 480.499 240.2V248.066C480.499 248.446 480.651 248.788 480.955 249.092C481.335 249.396 481.715 249.548 482.095 249.548H493.153C493.533 249.548 493.875 249.396 494.179 249.092C494.559 248.788 494.749 248.446 494.749 248.066ZM561.48 250.232C561.48 253.804 560.226 256.844 557.718 259.352C555.286 261.784 552.322 263 548.826 263H532.98C529.484 263 526.482 261.784 523.974 259.352C521.466 256.844 520.212 253.804 520.212 250.232V245.558C520.212 244.114 520.706 242.898 521.694 241.91C522.758 240.846 524.012 240.314 525.456 240.314H528.648C530.092 240.314 531.308 240.846 532.296 241.91C533.284 242.898 533.778 244.114 533.778 245.558V248.066C533.778 249.054 534.31 249.548 535.374 249.548H546.432C546.812 249.548 547.154 249.396 547.458 249.092C547.838 248.788 548.028 248.446 548.028 248.066V243.848C548.028 243.24 547.724 242.822 547.116 242.594L530.586 237.35C527.546 236.286 525.038 234.462 523.062 231.878C521.162 229.294 520.212 226.368 520.212 223.1V216.716C520.212 214.36 520.782 212.232 521.922 210.332C523.138 208.432 524.696 206.912 526.596 205.772C528.496 204.556 530.624 203.948 532.98 203.948H548.826C551.182 203.948 553.31 204.556 555.21 205.772C557.11 206.912 558.63 208.432 559.77 210.332C560.91 212.232 561.48 214.36 561.48 216.716V221.276C561.48 222.72 560.986 223.974 559.998 225.038C559.01 226.026 557.794 226.52 556.35 226.52H553.158C551.714 226.52 550.498 226.026 549.51 225.038C548.522 223.974 548.028 222.72 548.028 221.276V219.11C548.028 218.654 547.838 218.274 547.458 217.97C547.154 217.666 546.812 217.514 546.432 217.514H535.374C534.31 217.514 533.778 218.046 533.778 219.11V223.1C533.778 223.86 534.082 224.316 534.69 224.468L551.22 229.712C554.336 230.7 556.806 232.486 558.63 235.07C560.53 237.654 561.48 240.58 561.48 243.848V250.232ZM614.759 257.756C614.759 259.2 614.265 260.454 613.277 261.518C612.289 262.506 611.073 263 609.629 263H606.437C604.993 263 603.777 262.506 602.789 261.518C601.801 260.454 601.307 259.2 601.307 257.756V219.11C601.307 218.654 601.117 218.274 600.737 217.97C600.433 217.666 600.091 217.514 599.711 217.514H588.653C588.273 217.514 587.893 217.666 587.513 217.97C587.209 218.274 587.057 218.654 587.057 219.11V257.756C587.057 259.2 586.563 260.454 585.575 261.518C584.587 262.506 583.371 263 581.927 263H578.735C577.291 263 576.037 262.506 574.973 261.518C573.985 260.454 573.491 259.2 573.491 257.756V191.18C573.491 189.66 573.985 188.406 574.973 187.418C576.037 186.43 577.291 185.936 578.735 185.936H581.927C583.371 185.936 584.587 186.43 585.575 187.418C586.563 188.406 587.057 189.66 587.057 191.18V202.58C587.057 202.96 587.209 203.302 587.513 203.606C587.893 203.834 588.273 203.948 588.653 203.948H602.105C604.461 203.948 606.589 204.518 608.489 205.658C610.389 206.798 611.909 208.356 613.049 210.332C614.189 212.232 614.759 214.36 614.759 216.716V257.756ZM643.984 193.232C643.984 195.588 643.11 197.64 641.362 199.388C639.69 201.06 637.714 201.896 635.434 201.896C633.078 201.896 631.026 201.06 629.278 199.388C627.606 197.64 626.77 195.588 626.77 193.232C626.77 190.952 627.606 188.976 629.278 187.304C631.026 185.556 633.078 184.682 635.434 184.682C637.714 184.682 639.69 185.556 641.362 187.304C643.11 188.976 643.984 190.952 643.984 193.232ZM642.16 257.756C642.16 259.2 641.628 260.454 640.564 261.518C639.576 262.506 638.36 263 636.916 263H633.838C632.394 263 631.14 262.506 630.076 261.518C629.088 260.454 628.594 259.2 628.594 257.756V210.446C628.594 209.002 629.088 207.786 630.076 206.798C631.14 205.734 632.394 205.202 633.838 205.202H636.916C638.36 205.202 639.576 205.734 640.564 206.798C641.628 207.786 642.16 209.002 642.16 210.446V257.756ZM697.158 250.232C697.158 253.804 695.904 256.844 693.396 259.352C690.964 261.784 688 263 684.504 263H668.658C665.162 263 662.16 261.784 659.652 259.352C657.144 256.844 655.89 253.804 655.89 250.232V216.716C655.89 214.36 656.46 212.232 657.6 210.332C658.816 208.356 660.374 206.798 662.274 205.658C664.174 204.518 666.302 203.948 668.658 203.948H684.504C686.86 203.948 688.988 204.518 690.888 205.658C692.788 206.798 694.308 208.356 695.448 210.332C696.588 212.232 697.158 214.36 697.158 216.716V250.232ZM683.706 248.066V219.11C683.706 218.654 683.516 218.274 683.136 217.97C682.832 217.666 682.49 217.514 682.11 217.514H671.052C670.672 217.514 670.292 217.666 669.912 217.97C669.608 218.274 669.456 218.654 669.456 219.11V248.066C669.456 248.446 669.608 248.788 669.912 249.092C670.292 249.396 670.672 249.548 671.052 249.548H682.11C682.49 249.548 682.832 249.396 683.136 249.092C683.516 248.788 683.706 248.446 683.706 248.066ZM750.437 257.756C750.437 259.2 749.943 260.454 748.955 261.518C747.967 262.506 746.751 263 745.307 263H742.115C740.671 263 739.455 262.506 738.467 261.518C737.479 260.454 736.985 259.2 736.985 257.756V219.11C736.985 218.654 736.795 218.274 736.415 217.97C736.111 217.666 735.769 217.514 735.389 217.514H724.331C723.951 217.514 723.571 217.666 723.191 217.97C722.887 218.274 722.735 218.654 722.735 219.11V257.756C722.735 259.2 722.241 260.454 721.253 261.518C720.265 262.506 719.049 263 717.605 263H714.413C712.969 263 711.715 262.506 710.651 261.518C709.663 260.454 709.169 259.2 709.169 257.756V216.716C709.169 214.36 709.739 212.232 710.879 210.332C712.095 208.356 713.653 206.798 715.553 205.658C717.453 204.518 719.581 203.948 721.937 203.948H737.783C740.139 203.948 742.267 204.518 744.167 205.658C746.067 206.798 747.587 208.356 748.727 210.332C749.867 212.232 750.437 214.36 750.437 216.716V257.756Z" fill="#F8F3AD"/>
<path d="M454.936 112.384C454.936 113.828 454.442 115.044 453.454 116.032C452.466 117.02 451.212 117.514 449.692 117.514H437.722C436.734 117.514 436.24 118.046 436.24 119.11V157.756C436.24 159.2 435.708 160.454 434.644 161.518C433.656 162.506 432.44 163 430.996 163H427.804C426.36 163 425.106 162.506 424.042 161.518C423.054 160.454 422.56 159.2 422.56 157.756V98.59C422.56 96.234 423.13 94.106 424.27 92.206C425.486 90.306 427.044 88.786 428.944 87.646C430.844 86.506 432.972 85.936 435.328 85.936H449.692C451.212 85.936 452.466 86.43 453.454 87.418C454.442 88.406 454.936 89.66 454.936 91.18V94.258C454.936 95.702 454.442 96.956 453.454 98.02C452.466 99.008 451.212 99.502 449.692 99.502H437.722C436.734 99.502 436.24 99.996 436.24 100.984V102.58C436.24 103.492 436.734 103.948 437.722 103.948H449.692C451.212 103.948 452.466 104.48 453.454 105.544C454.442 106.532 454.936 107.786 454.936 109.306V112.384ZM505.465 150.232C505.465 153.804 504.211 156.844 501.703 159.352C499.271 161.784 496.307 163 492.811 163H476.965C473.469 163 470.467 161.784 467.959 159.352C465.451 156.844 464.197 153.804 464.197 150.232V109.306C464.197 107.786 464.691 106.532 465.679 105.544C466.743 104.48 467.997 103.948 469.441 103.948H472.633C474.077 103.948 475.293 104.48 476.281 105.544C477.269 106.532 477.763 107.786 477.763 109.306V148.066C477.763 148.446 477.915 148.788 478.219 149.092C478.599 149.396 478.979 149.548 479.359 149.548H490.417C490.797 149.548 491.139 149.396 491.443 149.092C491.823 148.788 492.013 148.446 492.013 148.066V109.306C492.013 107.786 492.507 106.532 493.495 105.544C494.483 104.48 495.699 103.948 497.143 103.948H500.335C501.779 103.948 502.995 104.48 503.983 105.544C504.971 106.532 505.465 107.786 505.465 109.306V150.232ZM556.008 157.756C556.008 159.2 555.514 160.454 554.526 161.518C553.538 162.506 552.322 163 550.878 163H547.686C546.242 163 545.026 162.506 544.038 161.518C543.05 160.454 542.556 159.2 542.556 157.756V119.11C542.556 118.654 542.366 118.274 541.986 117.97C541.682 117.666 541.34 117.514 540.96 117.514H529.902C529.522 117.514 529.142 117.666 528.762 117.97C528.458 118.274 528.306 118.654 528.306 119.11V157.756C528.306 159.2 527.812 160.454 526.824 161.518C525.836 162.506 524.62 163 523.176 163H519.984C518.54 163 517.286 162.506 516.222 161.518C515.234 160.454 514.74 159.2 514.74 157.756V116.716C514.74 114.36 515.31 112.232 516.45 110.332C517.666 108.356 519.224 106.798 521.124 105.658C523.024 104.518 525.152 103.948 527.508 103.948H543.354C545.71 103.948 547.838 104.518 549.738 105.658C551.638 106.798 553.158 108.356 554.298 110.332C555.438 112.232 556.008 114.36 556.008 116.716V157.756ZM599.141 157.756C599.141 159.2 598.647 160.454 597.659 161.518C596.671 162.506 595.455 163 594.011 163H578.051C574.555 163 571.553 161.784 569.045 159.352C566.613 156.844 565.397 153.804 565.397 150.232V91.18C565.397 89.66 565.891 88.406 566.879 87.418C567.867 86.43 569.083 85.936 570.527 85.936H573.719C575.163 85.936 576.379 86.43 577.367 87.418C578.431 88.406 578.963 89.66 578.963 91.18V102.58C578.963 103.492 579.457 103.948 580.445 103.948H594.011C595.455 103.948 596.671 104.48 597.659 105.544C598.647 106.532 599.141 107.786 599.141 109.306V112.384C599.141 113.676 598.647 114.892 597.659 116.032C596.519 117.02 595.303 117.514 594.011 117.514H580.445C579.457 117.514 578.963 118.046 578.963 119.11V148.066C578.963 149.054 579.457 149.548 580.445 149.548H594.011C595.455 149.548 596.671 150.042 597.659 151.03C598.647 152.018 599.141 153.272 599.141 154.792V157.756ZM649.635 129.142C649.635 131.422 649.065 133.55 647.925 135.526C646.785 137.426 645.265 138.984 643.365 140.2C641.465 141.34 639.337 141.91 636.981 141.91H623.529C623.149 141.91 622.769 142.062 622.389 142.366C622.085 142.594 621.933 142.898 621.933 143.278V148.066C621.933 148.446 622.085 148.788 622.389 149.092C622.769 149.396 623.149 149.548 623.529 149.548H636.981C638.425 149.548 639.641 150.042 640.629 151.03C641.693 152.018 642.225 153.272 642.225 154.792V157.756C642.225 159.2 641.693 160.454 640.629 161.518C639.641 162.506 638.425 163 636.981 163H621.135C617.639 163 614.637 161.784 612.129 159.352C609.621 156.844 608.367 153.804 608.367 150.232V116.716C608.367 114.36 608.937 112.232 610.077 110.332C611.293 108.432 612.851 106.912 614.751 105.772C616.651 104.556 618.779 103.948 621.135 103.948H636.981C639.337 103.948 641.465 104.556 643.365 105.772C645.265 106.912 646.785 108.432 647.925 110.332C649.065 112.232 649.635 114.36 649.635 116.716V129.142ZM636.183 126.862V119.11C636.183 118.654 635.993 118.274 635.613 117.97C635.309 117.666 634.967 117.514 634.587 117.514H623.529C623.149 117.514 622.769 117.666 622.389 117.97C622.085 118.274 621.933 118.654 621.933 119.11V126.862C621.933 127.166 622.085 127.47 622.389 127.774C622.769 128.078 623.149 128.23 623.529 128.23H634.587C634.967 128.23 635.309 128.078 635.613 127.774C635.993 127.47 636.183 127.166 636.183 126.862ZM700.178 157.756C700.178 159.2 699.684 160.454 698.696 161.518C697.708 162.506 696.492 163 695.048 163H691.856C690.412 163 689.196 162.506 688.208 161.518C687.22 160.454 686.726 159.2 686.726 157.756V119.11C686.726 118.654 686.536 118.274 686.156 117.97C685.852 117.666 685.51 117.514 685.13 117.514H674.072C673.692 117.514 673.312 117.666 672.932 117.97C672.628 118.274 672.476 118.654 672.476 119.11V157.756C672.476 159.2 671.982 160.454 670.994 161.518C670.006 162.506 668.79 163 667.346 163H664.154C662.71 163 661.456 162.506 660.392 161.518C659.404 160.454 658.91 159.2 658.91 157.756V116.716C658.91 114.36 659.48 112.232 660.62 110.332C661.836 108.356 663.394 106.798 665.294 105.658C667.194 104.518 669.322 103.948 671.678 103.948H687.524C689.88 103.948 692.008 104.518 693.908 105.658C695.808 106.798 697.328 108.356 698.468 110.332C699.608 112.232 700.178 114.36 700.178 116.716V157.756ZM750.721 150.232C750.721 153.804 749.467 156.844 746.959 159.352C744.527 161.784 741.563 163 738.067 163H722.221C718.725 163 715.723 161.784 713.215 159.352C710.707 156.844 709.453 153.804 709.453 150.232V116.716C709.453 114.36 710.023 112.232 711.163 110.332C712.379 108.356 713.937 106.798 715.837 105.658C717.737 104.518 719.865 103.948 722.221 103.948H735.673C736.737 103.948 737.269 103.492 737.269 102.58V91.18C737.269 89.66 737.763 88.406 738.751 87.418C739.739 86.43 740.955 85.936 742.399 85.936H745.591C747.035 85.936 748.251 86.43 749.239 87.418C750.227 88.406 750.721 89.66 750.721 91.18V150.232ZM737.269 148.066V119.11C737.269 118.046 736.737 117.514 735.673 117.514H724.615C724.235 117.514 723.855 117.666 723.475 117.97C723.171 118.274 723.019 118.654 723.019 119.11V148.066C723.019 148.446 723.171 148.788 723.475 149.092C723.855 149.396 724.235 149.548 724.615 149.548H735.673C736.737 149.548 737.269 149.054 737.269 148.066Z" fill="#F8F3AD"/>
<path d="M87.6313 305.677H350.369C371.691 305.677 389 288.393 389 267.046V77.6314C389 56.3091 371.716 39 350.369 39H87.6313C66.309 39 49 56.2844 49 77.6314V267.046C49 288.368 66.2844 305.677 87.6313 305.677ZM69.9038 98.5106C69.9038 77.1882 87.1881 59.8792 108.535 59.8792H329.465C350.787 59.8792 368.096 77.1636 368.096 98.5106V243.95C368.096 265.273 350.812 282.582 329.465 282.582H108.511C87.1881 282.582 69.8791 265.297 69.8791 243.95V98.5106H69.9038Z" fill="#F8F3AD"/>
<path d="M340.868 92.035C338.824 93.6844 336.854 95.4327 334.835 97.3779C334.466 97.7224 331.043 100.603 325.257 97.0579L324.863 96.8611C324.863 96.8611 321.983 95.4327 315.556 90.3115C314.202 89.1296 302.162 78.6654 289.95 79.0101C287.685 78.8624 278.329 78.887 269.44 87.3322L263.26 93.0198C261.783 94.4727 258.976 96.2205 257.72 95.7527L256.193 95.285C255.233 94.7927 252.968 93.4631 248.635 90.0898C247.576 89.2527 238.023 82.014 229.528 80.5613C227.534 80.0934 215.223 77.5082 204.538 83.3435C203.602 83.7867 199.49 85.9534 192.719 92.2073L192.448 92.503C191.389 93.6844 188.509 96.0482 186.391 95.8269H185.825C185.185 95.7527 182.993 95.4818 179.793 93.7095C178.808 93.1185 175.976 91.3456 171.224 87.5785C169.87 86.3966 157.806 75.9324 145.618 76.2771C143.353 76.1293 133.972 76.1786 125.108 84.5992L118.903 90.3115C117.451 91.7641 114.644 93.5121 113.363 93.0444L111.837 92.5766C110.877 92.0842 108.612 90.7547 104.303 87.3815C104.278 87.3569 100.782 84.6485 96.1777 82.1125L87.043 77.065V102.573L89.6775 104.42C91.3026 105.552 92.8783 106.734 94.3064 107.842C95.7837 109.098 106.667 117.913 119.027 115.056C120.725 114.761 127.743 113.235 134.046 106.66C135.425 105.208 140.078 100.677 143.156 99.0766C143.254 99.0275 145.692 97.7966 148.843 99.4217C149.015 99.5198 153.275 101.884 157.141 104.986C157.609 105.355 161.45 108.26 165.241 110.846V111.166L168.319 112.939C169.058 113.382 169.747 113.751 170.338 114.022L170.56 114.145C170.56 114.145 171.323 114.588 172.505 115.13C174.228 115.942 177.774 117.42 182.058 118.011C187.401 118.848 192.325 118.331 196.535 116.533C196.905 116.386 200.18 115.13 204.02 112.323L206.556 110.477V109.762C206.926 109.418 207.32 109.073 207.714 108.679C210.25 106.045 215.469 102.13 218.621 102.007H218.892C219.138 101.957 224.949 101.391 229.775 104.346C229.824 104.371 234.034 106.906 238.515 110.477C239.722 111.535 250.752 120.645 263.284 117.765C264.984 117.469 272.001 115.943 278.304 109.369C279.707 107.916 284.336 103.386 287.389 101.785C287.488 101.736 289.95 100.48 293.126 102.13C293.298 102.228 297.558 104.592 301.423 107.695C301.793 107.965 310.46 114.589 314.818 116.854C315.581 117.297 322.524 121.138 331.117 121.138C334.638 121.138 337.937 120.473 340.843 119.267C341.212 119.119 344.511 117.863 348.328 115.056L350.864 113.209V83.8606L340.818 92.0104L340.868 92.035Z" fill="#F8F3AD"/>
<path d="M334.81 139.777C334.441 140.122 331.018 143.002 325.233 139.457L324.838 139.26C324.838 139.26 321.958 137.832 315.531 132.711C314.202 131.529 302.384 121.385 290.344 121.385C290.196 121.385 290.048 121.385 289.925 121.385C287.66 121.262 278.254 121.336 269.44 129.707L263.26 135.395C261.807 136.847 258.976 138.595 257.72 138.128L256.193 137.66C255.233 137.167 252.968 135.837 248.635 132.464C247.576 131.627 238.022 124.388 229.528 122.936C227.879 122.542 215.248 119.883 204.537 125.718C203.602 126.161 199.49 128.328 192.719 134.582L192.448 134.877C191.389 136.059 188.484 138.399 186.145 138.201H185.776C185.776 138.201 183.412 138.103 179.793 136.084C178.808 135.493 175.976 133.72 171.249 129.953C169.895 128.771 157.757 118.479 145.642 118.652C143.377 118.528 133.996 118.578 125.133 126.974L118.928 132.661C117.476 134.114 114.644 135.862 113.388 135.395L111.861 134.926C110.901 134.434 108.636 133.105 104.303 129.707C104.155 129.584 100.708 126.925 96.1777 124.438L87.043 119.39V144.899L89.6775 146.745C91.3026 147.878 92.903 149.059 94.3064 150.168C95.7837 151.423 106.667 160.238 119.027 157.382C120.725 157.086 127.743 155.56 134.046 148.986C136.114 146.819 140.398 142.83 143.155 141.402C143.254 141.353 145.692 140.122 148.843 141.747C149.015 141.845 153.275 144.209 157.14 147.311C157.609 147.681 161.449 150.586 165.241 153.171V153.491L168.319 155.264C169.058 155.708 169.747 156.052 170.338 156.348L170.584 156.471C170.584 156.471 171.347 156.914 172.529 157.455C174.253 158.293 177.798 159.745 182.082 160.336C187.425 161.173 192.35 160.657 196.56 158.859C196.929 158.711 200.204 157.455 204.045 154.649L206.581 152.802V152.088C206.95 151.743 207.344 151.399 207.738 151.004C210.274 148.37 215.494 144.455 218.646 144.332H218.966C218.966 144.332 224.949 143.668 229.799 146.646C229.971 146.745 234.206 149.33 238.564 152.777C239.795 153.836 250.802 162.946 263.358 160.066C265.057 159.77 272.074 158.244 278.377 151.67C279.781 150.217 284.41 145.686 287.463 144.086C287.561 144.037 290.023 142.781 293.175 144.431C293.348 144.529 297.607 146.893 301.473 149.995C301.842 150.266 310.509 156.889 314.867 159.155C315.63 159.598 322.573 163.439 331.166 163.439C334.687 163.439 337.986 162.774 340.892 161.567C341.261 161.42 344.56 160.164 348.377 157.357L350.912 155.51V126.161L340.867 134.311C338.823 135.961 336.854 137.709 334.835 139.654L334.81 139.777Z" fill="#F8F3AD"/>
<path d="M334.835 183.184C334.466 183.528 331.043 186.409 325.454 182.987L324.839 182.667C324.839 182.667 321.958 181.239 315.532 176.117C314.99 175.65 302.359 164.668 289.925 164.816C287.709 164.693 278.279 164.743 269.415 173.138L263.211 178.85C261.758 180.303 258.951 182.026 257.695 181.584L256.169 181.115C255.209 180.623 252.944 179.293 248.61 175.921C247.551 175.083 237.998 167.845 229.504 166.392C227.51 165.924 215.199 163.339 204.513 169.174C203.577 169.617 199.465 171.784 192.694 178.038L192.399 178.333C191.34 179.491 188.46 181.854 186.096 181.633H185.751C185.751 181.633 183.363 181.534 179.744 179.515C178.758 178.924 175.927 177.152 171.2 173.384C169.846 172.203 157.732 161.788 145.593 162.083C143.353 161.96 133.947 162.009 125.108 170.405L118.903 176.093C117.476 177.521 114.669 179.293 113.363 178.826L111.837 178.358C110.877 177.866 108.612 176.536 104.303 173.163C104.278 173.138 100.782 170.43 96.1777 167.894L87.043 162.846V188.355L89.6775 190.201C91.3026 191.333 92.8783 192.515 94.3064 193.624C95.7837 194.879 106.667 203.694 119.027 200.838C120.725 200.542 127.743 199.016 134.046 192.442C135.425 190.989 140.078 186.459 143.131 184.858C143.23 184.809 145.667 183.578 148.819 185.203C148.991 185.301 153.251 187.665 157.116 190.768C157.584 191.137 161.425 194.042 165.217 196.627V196.947L168.27 198.72C169.008 199.163 169.722 199.533 170.264 199.804L170.51 199.927C170.51 199.927 171.298 200.37 172.48 200.911C174.204 201.724 177.749 203.201 182.033 203.792C187.376 204.629 192.3 204.112 196.511 202.315C196.88 202.167 200.155 200.911 203.996 198.104L206.532 196.258V195.544C206.901 195.199 207.295 194.855 207.689 194.46C210.2 191.851 215.42 187.911 218.596 187.813H218.867C219.114 187.764 224.924 187.197 229.75 190.152C229.799 190.177 234.01 192.713 238.491 196.282C239.722 197.341 250.728 206.451 263.284 203.546C264.984 203.251 272.001 201.724 278.304 195.15C279.707 193.697 284.336 189.167 287.389 187.566C287.488 187.517 289.95 186.262 293.102 187.911C293.274 188.01 297.533 190.373 301.399 193.476C301.768 193.746 310.435 200.369 314.793 202.635C315.556 203.078 322.499 206.919 331.093 206.919C334.613 206.919 337.913 206.254 340.793 205.048C340.941 204.998 344.315 203.743 348.328 200.838L350.864 198.991V169.642L340.818 177.792C338.775 179.441 336.805 181.19 334.786 183.135L334.835 183.184Z" fill="#F8F3AD"/>
<path d="M132.69 260.963C143.909 260.963 153.003 251.869 153.003 240.651C153.003 229.432 143.909 220.338 132.69 220.338C121.472 220.338 112.378 229.432 112.378 240.651C112.378 251.869 121.472 260.963 132.69 260.963Z" fill="#F8F3AD"/>
<path d="M319.641 255.017C327.574 247.085 327.574 234.223 319.641 226.291C311.708 218.358 298.847 218.358 290.914 226.291C282.982 234.223 282.982 247.085 290.914 255.017C298.847 262.95 311.708 262.95 319.641 255.017Z" fill="#F8F3AD"/>
<path d="M166.546 215.71L172.061 265.569H176.469L171.47 215.71H166.546Z" fill="#F8F3AD"/>
<path d="M179.046 215.71L183.257 265.569H187.664L183.971 215.71H179.046Z" fill="#F8F3AD"/>
<path d="M191.547 215.71L194.428 265.569H198.835L196.471 215.71H191.547Z" fill="#F8F3AD"/>
<path d="M204.006 215.71L205.581 265.569H209.989L208.93 215.71H204.006Z" fill="#F8F3AD"/>
<path d="M216.753 265.569H221.16L221.431 215.71H216.506L216.753 265.569Z" fill="#F8F3AD"/>
<path d="M227.965 265.569H232.372L233.948 215.71H229.024L227.965 265.569Z" fill="#F8F3AD"/>
<path d="M239.132 265.569H243.515L246.42 215.71H241.496L239.132 265.569Z" fill="#F8F3AD"/>
<path d="M250.341 265.569H254.748L258.934 215.71H254.009L250.341 265.569Z" fill="#F8F3AD"/>
<path d="M261.508 265.569H265.915L271.431 215.71H266.506L261.508 265.569Z" fill="#F8F3AD"/>
</svg>
